#N canvas 660 400 1223 682 10;
#X msg 410 465 devices;
#X msg 476 465 open 2;
#X obj 222 420 hsl 128 15 0 255 0 0 empty empty empty -2 -6 0 8 -262144
-1 -1 19 1;
#X obj 220 448 % 255;
#X floatatom 258 465 5 0 0 0 - - -;
#X obj 407 108 loadbang;
#X obj 216 194 adc~;
#X obj 218 256 dbtorms;
#X obj 219 308 * 255;
#X floatatom 218 335 5 0 0 0 - - -;
#X floatatom 217 384 5 0 0 0 - - -;
#X obj 217 226 env~ 512;
#X obj 217 362 * 2;
#X obj 220 282 abs;
#X msg 520 143 \; pd dsp 1;
#X msg 475 497 close;
#X msg 523 194 \; pd dsp 0;
#X obj 409 548 comport 2 9600;
#X connect 0 0 17 0;
#X connect 1 0 17 0;
#X connect 2 0 3 0;
#X connect 3 0 4 0;
#X connect 3 0 17 0;
#X connect 5 0 0 0;
#X connect 5 0 1 0;
#X connect 5 0 14 0;
#X connect 6 0 11 0;
#X connect 7 0 13 0;
#X connect 8 0 9 0;
#X connect 9 0 12 0;
#X connect 10 0 2 0;
#X connect 11 0 7 0;
#X connect 12 0 10 0;
#X connect 13 0 8 0;
#X connect 15 0 17 0;
