#N canvas 638 127 1223 682 10;
#X obj 409 514 comport;
#X msg 410 465 devices;
#X msg 476 465 open 2;
#X obj 251 316 hsl 128 15 0 255 0 0 empty empty empty -2 -6 0 8 -262144
-1 -1 7000 1;
#X obj 249 344 % 255;
#X floatatom 287 361 5 0 0 0 - - -;
#X obj 540 513 s comctl;
#X msg 540 465 baud 115200;
#X obj 476 392 loadbang;
#X floatatom 752 388 5 0 0 0 - - -;
#X obj 743 154 inlet~;
#X obj 781 269 pack 0;
#X obj 782 307 line~;
#X obj 757 227 peakamp~ 0;
#X obj 366 96 adc~ 0;
#X connect 1 0 0 0;
#X connect 2 0 0 0;
#X connect 3 0 4 0;
#X connect 4 0 5 0;
#X connect 4 0 0 0;
#X connect 7 0 6 0;
#X connect 8 0 1 0;
#X connect 8 0 2 0;
#X connect 8 0 7 0;
#X connect 10 0 13 0;
#X connect 11 0 12 0;
#X connect 11 0 9 0;
#X connect 13 0 11 0;
#X connect 14 0 13 0;
